<svg width="25" height="24" viewBox="0 0 25 24" fill="none" xmlns="http://www.w3.org/2000/svg">
<path fill-rule="evenodd" clip-rule="evenodd" d="M23.5 4C23.5 3.11596 22.355 2.80151 21.5975 2.59348C21.5279 2.57437 21.4616 2.55615 21.3997 2.53848C20.4537 2.26818 19.1102 2 17.5 2C15.7762 2 14.3549 2.574 13.3789 3.13176C13.2296 3.21707 13.0726 3.33492 12.9307 3.44143C12.7433 3.58215 12.5823 3.70308 12.5 3.70308C12.4177 3.70308 12.2567 3.58215 12.0693 3.44143C11.9274 3.33492 11.7704 3.21707 11.6211 3.13176C10.6451 2.574 9.22378 2 7.5 2C5.88978 2 4.5463 2.26818 3.60028 2.53848C3.54079 2.55547 3.47705 2.57302 3.41016 2.59144C2.656 2.79911 1.5 3.11742 1.5 4V17C1.5 17.3466 1.67945 17.6684 1.97427 17.8507C2.44329 18.1405 3.06224 17.8868 3.61074 17.662C3.80209 17.5835 3.98487 17.5086 4.14972 17.4615C4.9537 17.2318 6.11022 17 7.5 17C8.7613 17 9.70554 17.4161 10.4134 17.8517C10.5952 17.9636 10.779 18.1063 10.9676 18.2527C11.4338 18.6148 11.9298 19 12.5 19C13.0718 19 13.5653 18.6162 14.0307 18.2543C14.2195 18.1074 14.4037 17.9642 14.5866 17.8517C15.2945 17.4161 16.2387 17 17.5 17C18.8898 17 20.0463 17.2318 20.8503 17.4615C21.0227 17.5108 21.2099 17.5898 21.4042 17.6719C21.9443 17.9 22.5393 18.1513 23.0257 17.8507C23.3205 17.6684 23.5 17.3466 23.5 17V4ZM3.83252 4.55749C3.63163 4.62161 3.5 4.81078 3.5 5.02166V14.8991C3.5 15.233 3.82089 15.4733 4.14547 15.3951C5.03577 15.1807 6.17777 15 7.5 15C9.26309 15 10.5794 15.5994 11.5 16.1721V5.45567C11.2989 5.29593 11.0037 5.08245 10.6289 4.86824C9.85493 4.426 8.77622 4 7.5 4C5.91509 4 4.62989 4.30297 3.83252 4.55749ZM17.5 15C15.7369 15 14.4206 15.5994 13.5 16.1721V5.45567C13.7011 5.29593 13.9963 5.08245 14.3711 4.86824C15.1451 4.426 16.2238 4 17.5 4C19.0849 4 20.3701 4.30297 21.1675 4.55749C21.3684 4.62161 21.5 4.81078 21.5 5.02166V14.8991C21.5 15.233 21.1791 15.4733 20.8545 15.3951C19.9642 15.1807 18.8222 15 17.5 15Z" fill="#0F0F0F"/>
<path d="M2.58735 20.4087C2.36161 19.9047 2.58723 19.3131 3.09127 19.0873C3.55951 18.8792 4.04426 18.7043 4.5318 18.5478C5.34068 18.2883 6.45911 18 7.5 18C8.66689 18 9.66285 18.6289 10.3847 19.0847C10.4217 19.1081 10.4581 19.131 10.4937 19.1534C11.3347 19.6821 11.9004 20 12.5 20C13.0989 20 13.6612 19.6829 14.5012 19.1538C14.5357 19.1321 14.5708 19.1099 14.6066 19.0872C15.3291 18.6303 16.3257 18 17.5 18C18.5465 18 19.6647 18.2881 20.4732 18.548C21.1992 18.7814 21.7378 19.0122 21.8762 19.073C22.3822 19.2968 22.6443 19.8943 22.4118 20.4105C22.1867 20.9106 21.5859 21.1325 21.0874 20.9109C20.6883 20.7349 20.2761 20.5855 19.861 20.452C19.1142 20.2119 18.2324 20 17.5 20C16.9409 20 16.4037 20.3186 15.5069 20.8841C14.7635 21.3529 13.7373 22 12.5 22C11.2619 22 10.2324 21.3521 9.48685 20.8829C8.58824 20.3173 8.05225 20 7.5 20C6.77378 20 5.89222 20.2117 5.14287 20.4522C4.72538 20.5861 4.30974 20.7351 3.9085 20.9128C3.4045 21.1383 2.81305 20.9127 2.58735 20.4087Z" fill="#0F0F0F"/>
</svg>
