<svg width="22" height="20" viewBox="0 0 22 20" fill="none" xmlns="http://www.w3.org/2000/svg">
<path fill-rule="evenodd" clip-rule="evenodd" d="M11 1.51569C9.56981 0.558586 7.8491 0 6 0C3.87259 0 1.91514 0.739382 0.37453 1.97438L0 2.27462V19.0879L1.62547 17.7849C2.82406 16.8241 4.34362 16.25 6 16.25C7.65638 16.25 9.17594 16.8241 10.3745 17.7849L11 18.2863L11.6255 17.7849C12.8241 16.8241 14.3436 16.25 16 16.25C17.6564 16.25 19.1759 16.8241 20.3745 17.7849L22 19.0879V2.27462L21.6255 1.97438C20.0849 0.739382 18.1274 0 16 0C14.1509 0 12.4302 0.558586 11 1.51569ZM2 3.25457V15.1858C3.20526 14.5869 4.56391 14.25 6 14.25C7.43609 14.25 8.79474 14.5869 10 15.1858V3.25457C8.8662 2.46348 7.48833 2 6 2C4.51167 2 3.1338 2.46348 2 3.25457ZM12 3.25457V15.1858C13.2053 14.5869 14.5639 14.25 16 14.25C17.4361 14.25 18.7947 14.5869 20 15.1858V3.25457C18.8662 2.46348 17.4883 2 16 2C14.5117 2 13.1338 2.46348 12 3.25457Z" fill="white"/>
</svg>
