<svg width="25" height="24" viewBox="0 0 25 24" fill="none" xmlns="http://www.w3.org/2000/svg">
<g id="calendar-small">
<g id="icon">
<path d="M7.5 14C7.5 13.4477 7.94772 13 8.5 13C9.05229 13 9.5 13.4477 9.5 14C9.5 14.5523 9.05229 15 8.5 15C7.94772 15 7.5 14.5523 7.5 14Z" fill="#00A8A5"/>
<path d="M8.5 17C7.94772 17 7.5 17.4477 7.5 18C7.5 18.5523 7.94772 19 8.5 19C9.05229 19 9.5 18.5523 9.5 18C9.5 17.4477 9.05229 17 8.5 17Z" fill="#00A8A5"/>
<path d="M11.5 14C11.5 13.4477 11.9477 13 12.5 13C13.0523 13 13.5 13.4477 13.5 14C13.5 14.5523 13.0523 15 12.5 15C11.9477 15 11.5 14.5523 11.5 14Z" fill="#00A8A5"/>
<path d="M12.5 17C11.9477 17 11.5 17.4477 11.5 18C11.5 18.5523 11.9477 19 12.5 19C13.0523 19 13.5 18.5523 13.5 18C13.5 17.4477 13.0523 17 12.5 17Z" fill="#00A8A5"/>
<path d="M15.5 14C15.5 13.4477 15.9477 13 16.5 13C17.0523 13 17.5 13.4477 17.5 14C17.5 14.5523 17.0523 15 16.5 15C15.9477 15 15.5 14.5523 15.5 14Z" fill="#00A8A5"/>
<path d="M16.5 17C15.9477 17 15.5 17.4477 15.5 18C15.5 18.5523 15.9477 19 16.5 19C17.0523 19 17.5 18.5523 17.5 18C17.5 17.4477 17.0523 17 16.5 17Z" fill="#00A8A5"/>
<path fill-rule="evenodd" clip-rule="evenodd" d="M6.5 2C6.5 1.44772 6.94772 1 7.5 1C8.05228 1 8.5 1.44772 8.5 2V3H16.5V2C16.5 1.44772 16.9477 1 17.5 1C18.0523 1 18.5 1.44772 18.5 2V3H19.5C21.1569 3 22.5 4.34315 22.5 6V20C22.5 21.6569 21.1569 23 19.5 23H5.5C3.84315 23 2.5 21.6569 2.5 20V6C2.5 4.34315 3.84315 3 5.5 3H6.5V2ZM16.5 5V6C16.5 6.55228 16.9477 7 17.5 7C18.0523 7 18.5 6.55228 18.5 6V5H19.5C20.0523 5 20.5 5.44772 20.5 6V9H4.5V6C4.5 5.44772 4.94772 5 5.5 5H6.5V6C6.5 6.55228 6.94772 7 7.5 7C8.05228 7 8.5 6.55228 8.5 6V5H16.5ZM4.5 11V20C4.5 20.5523 4.94772 21 5.5 21H19.5C20.0523 21 20.5 20.5523 20.5 20V11H4.5Z" fill="#00A8A5"/>
</g>
</g>
</svg>
