<svg width="21" height="22" viewBox="0 0 21 22" fill="none" xmlns="http://www.w3.org/2000/svg">
<path d="M5.5 13C5.5 12.4477 5.94772 12 6.5 12C7.05229 12 7.5 12.4477 7.5 13C7.5 13.5523 7.05229 14 6.5 14C5.94772 14 5.5 13.5523 5.5 13Z" fill="#0F0F0F"/>
<path d="M6.5 16C5.94772 16 5.5 16.4477 5.5 17C5.5 17.5523 5.94772 18 6.5 18C7.05229 18 7.5 17.5523 7.5 17C7.5 16.4477 7.05229 16 6.5 16Z" fill="#0F0F0F"/>
<path d="M9.5 13C9.5 12.4477 9.94772 12 10.5 12C11.0523 12 11.5 12.4477 11.5 13C11.5 13.5523 11.0523 14 10.5 14C9.94772 14 9.5 13.5523 9.5 13Z" fill="#0F0F0F"/>
<path d="M10.5 16C9.94772 16 9.5 16.4477 9.5 17C9.5 17.5523 9.94772 18 10.5 18C11.0523 18 11.5 17.5523 11.5 17C11.5 16.4477 11.0523 16 10.5 16Z" fill="#0F0F0F"/>
<path d="M13.5 13C13.5 12.4477 13.9477 12 14.5 12C15.0523 12 15.5 12.4477 15.5 13C15.5 13.5523 15.0523 14 14.5 14C13.9477 14 13.5 13.5523 13.5 13Z" fill="#0F0F0F"/>
<path d="M14.5 16C13.9477 16 13.5 16.4477 13.5 17C13.5 17.5523 13.9477 18 14.5 18C15.0523 18 15.5 17.5523 15.5 17C15.5 16.4477 15.0523 16 14.5 16Z" fill="#0F0F0F"/>
<path fill-rule="evenodd" clip-rule="evenodd" d="M4.5 1C4.5 0.447715 4.94772 0 5.5 0C6.05228 0 6.5 0.447715 6.5 1V2H14.5V1C14.5 0.447715 14.9477 0 15.5 0C16.0523 0 16.5 0.447715 16.5 1V2H17.5C19.1569 2 20.5 3.34315 20.5 5V19C20.5 20.6569 19.1569 22 17.5 22H3.5C1.84315 22 0.5 20.6569 0.5 19V5C0.5 3.34315 1.84315 2 3.5 2H4.5V1ZM14.5 4V5C14.5 5.55228 14.9477 6 15.5 6C16.0523 6 16.5 5.55228 16.5 5V4H17.5C18.0523 4 18.5 4.44772 18.5 5V8H2.5V5C2.5 4.44772 2.94772 4 3.5 4H4.5V5C4.5 5.55228 4.94772 6 5.5 6C6.05228 6 6.5 5.55228 6.5 5V4H14.5ZM2.5 10V19C2.5 19.5523 2.94772 20 3.5 20H17.5C18.0523 20 18.5 19.5523 18.5 19V10H2.5Z" fill="#0F0F0F"/>
</svg>
