<svg width="226" height="166" viewBox="0 0 226 166" fill="none" xmlns="http://www.w3.org/2000/svg">
<path d="M200.693 146.987L202.507 151.047C202.572 151.199 202.788 151.22 202.874 151.091L205.488 147.484C205.596 147.354 205.51 147.16 205.337 147.138L200.909 146.663C200.758 146.684 200.628 146.836 200.693 146.987Z" fill="#00827F"/>
<path d="M209.59 132.515L212.009 136.252C212.095 136.382 212.311 136.382 212.376 136.231L214.385 132.278C214.449 132.127 214.341 131.954 214.19 131.954L209.741 132.191C209.611 132.191 209.503 132.386 209.59 132.515Z" fill="#00827F"/>
<path d="M216.125 116.834L219.106 120.139C219.214 120.268 219.43 120.225 219.473 120.052L220.855 115.819C220.899 115.668 220.769 115.516 220.596 115.538L216.255 116.467C216.082 116.51 216.017 116.704 216.125 116.834Z" fill="#00827F"/>
<path d="M220.126 100.311L223.582 103.119C223.711 103.227 223.906 103.14 223.927 102.989L224.619 98.6043C224.64 98.4315 224.489 98.3019 224.338 98.3667L220.191 99.9651C220.018 99.9867 219.996 100.203 220.126 100.311Z" fill="#00827F"/>
<path d="M220.191 66.4216L224.338 68.02C224.489 68.0848 224.662 67.9552 224.619 67.7824L223.928 63.3977C223.906 63.2249 223.712 63.1601 223.582 63.2681L220.126 66.076C219.997 66.1408 220.018 66.3568 220.191 66.4216Z" fill="#00827F"/>
<path d="M216.241 49.8762L220.582 50.8049C220.755 50.8481 220.885 50.6753 220.841 50.5241L219.459 46.2907C219.416 46.1395 219.2 46.0963 219.092 46.2043L216.111 49.509C216.025 49.6386 216.089 49.8546 216.241 49.8762Z" fill="#00827F"/>
<path d="M209.753 34.1726L214.203 34.4102C214.376 34.4102 214.484 34.2374 214.397 34.0862L212.389 30.1336C212.324 29.9824 212.108 29.9824 212.021 30.112L209.602 33.8486C209.494 33.9782 209.602 34.151 209.753 34.1726Z" fill="#00827F"/>
<path d="M200.909 19.6578L205.337 19.1826C205.51 19.161 205.596 18.9666 205.488 18.8371L202.874 15.23C202.766 15.1004 202.572 15.122 202.507 15.2732L200.693 19.3338C200.628 19.5066 200.758 19.6794 200.909 19.6578Z" fill="#00827F"/>
<path d="M25.6342 19.3553L23.8199 15.2947C23.7551 15.1435 23.5391 15.1219 23.4527 15.2515L20.8391 18.8586C20.7311 18.9881 20.8175 19.1825 20.9903 19.2041L25.4182 19.6793C25.5694 19.6793 25.699 19.5065 25.6342 19.3553Z" fill="#00827F"/>
<path d="M16.7386 33.8273L14.3194 30.0906C14.233 29.961 14.0171 29.961 13.9523 30.1122L11.9435 34.0649C11.8787 34.2161 11.9867 34.3889 12.1379 34.3889L16.5874 34.1513C16.717 34.1513 16.825 33.9785 16.7386 33.8273Z" fill="#00827F"/>
<path d="M10.1952 49.5303L7.21448 46.2256C7.10648 46.096 6.89048 46.1392 6.84729 46.312L5.46492 50.5455C5.42172 50.6967 5.55131 50.8478 5.72411 50.8263L10.0656 49.8975C10.2384 49.8543 10.3032 49.6383 10.1952 49.5303Z" fill="#00827F"/>
<path d="M6.20083 66.0542L2.7449 63.2463C2.61531 63.1383 2.42091 63.2246 2.39931 63.3758L1.70812 67.7605C1.68652 67.9333 1.83772 68.0629 1.98892 67.9981L6.13603 66.3998C6.30883 66.3566 6.33043 66.1406 6.20083 66.0542Z" fill="#00827F"/>
<path d="M6.14069 99.9434L1.99359 98.3451C1.84239 98.2803 1.6696 98.4099 1.71279 98.5827L2.40398 102.967C2.42558 103.14 2.61997 103.205 2.74957 103.097L6.20549 100.289C6.33509 100.203 6.31349 99.9866 6.14069 99.9434Z" fill="#00827F"/>
<path d="M10.0827 116.466L5.7412 115.538C5.5684 115.494 5.43881 115.667 5.48201 115.818L6.86437 120.052C6.90757 120.203 7.12357 120.246 7.23157 120.138L10.2123 116.833C10.2987 116.704 10.2339 116.509 10.0827 116.466Z" fill="#00827F"/>
<path d="M16.5659 132.191L12.1164 131.953C11.9436 131.953 11.8356 132.126 11.922 132.277L13.9308 136.23C13.9956 136.381 14.2116 136.381 14.298 136.251L16.7171 132.515C16.8251 132.385 16.7171 132.191 16.5659 132.191Z" fill="#00827F"/>
<path d="M25.4182 146.684L20.9903 147.16C20.8175 147.181 20.7311 147.375 20.8391 147.505L23.4527 151.112C23.5607 151.242 23.7551 151.22 23.8199 151.069L25.6342 147.008C25.699 146.836 25.5694 146.684 25.4182 146.684Z" fill="#00827F"/>
<path d="M187.514 157.786L189.566 165.432C189.609 165.583 189.804 165.648 189.933 165.518L195.528 159.924C195.636 159.816 195.592 159.6 195.441 159.557L187.795 157.505C187.622 157.462 187.471 157.613 187.514 157.786Z" fill="#00827F"/>
<path d="M38.5614 157.505L30.9152 159.557C30.764 159.601 30.6992 159.795 30.8288 159.924L36.423 165.519C36.531 165.627 36.747 165.583 36.7902 165.432L38.8422 157.786C38.8638 157.613 38.7126 157.462 38.5614 157.505Z" fill="#00827F"/>
<path d="M187.774 8.83735L195.42 6.78542C195.571 6.74222 195.636 6.54783 195.506 6.41823L189.912 0.824029C189.804 0.716032 189.588 0.759233 189.545 0.910427L187.493 8.55656C187.471 8.72936 187.622 8.88055 187.774 8.83735Z" fill="#00827F"/>
<path d="M38.8166 8.57926L36.7646 0.933104C36.7214 0.781908 36.527 0.717112 36.3974 0.846708L30.8032 6.44093C30.6952 6.54892 30.7384 6.76492 30.8896 6.80812L38.5358 8.86005C38.7086 8.88165 38.8598 8.73045 38.8166 8.57926Z" fill="#00827F"/>
<path d="M214.741 83.3547L225.346 89.4672C225.497 89.5536 225.67 89.4457 225.67 89.2729V77.0261C225.67 76.8533 225.497 76.7453 225.346 76.8317L214.881 82.8633C214.788 82.9172 214.685 82.9733 214.646 83.0737C214.603 83.1807 214.635 83.2942 214.741 83.3547Z" fill="#00827F"/>
<path d="M11.5998 83.3547L0.994403 89.4672C0.843206 89.5536 0.67041 89.4457 0.67041 89.2729L0.67041 77.0261C0.67041 76.8533 0.843206 76.7453 0.994403 76.8317L11.4006 82.8295C11.5328 82.9057 11.6861 82.9953 11.6964 83.1476C11.7019 83.2299 11.6697 83.308 11.5998 83.3547Z" fill="#00827F"/>
</svg>
