<svg width="20" height="20" viewBox="0 0 20 20" fill="none" xmlns="http://www.w3.org/2000/svg">
<path fill-rule="evenodd" clip-rule="evenodd" d="M7.39796 2.14282L9.28568 2.14282C9.68017 2.14282 9.99997 2.46262 9.99997 2.85711C9.99997 3.2516 9.68017 3.57139 9.28568 3.57139H7.42854C6.61668 3.57139 6.05074 3.57195 5.61014 3.60795C5.17787 3.64327 4.92953 3.7091 4.74141 3.80495C4.33821 4.01039 4.01039 4.33821 3.80495 4.74141C3.7091 4.92953 3.64327 5.17787 3.60795 5.61014C3.57195 6.05074 3.57139 6.61668 3.57139 7.42854V12.5714C3.57139 13.3833 3.57195 13.9492 3.60795 14.3898C3.64327 14.8221 3.7091 15.0704 3.80495 15.2585C4.01039 15.6617 4.33821 15.9895 4.74141 16.195C4.92953 16.2908 5.17787 16.3567 5.61014 16.392C6.05074 16.428 6.61668 16.4285 7.42854 16.4285H9.28568C9.68017 16.4285 9.99997 16.7483 9.99997 17.1428C9.99997 17.5373 9.68017 17.8571 9.28568 17.8571H7.39794C6.62382 17.8571 5.99943 17.8571 5.49381 17.8158C4.9732 17.7733 4.51592 17.6834 4.09286 17.4678C3.42085 17.1254 2.87449 16.5791 2.53209 15.9071C2.31652 15.484 2.22666 15.0267 2.18412 14.5061C2.14281 14.0005 2.14282 13.3761 2.14282 12.602V7.39796C2.14282 6.62383 2.14281 5.99943 2.18412 5.49381C2.22666 4.9732 2.31652 4.51592 2.53209 4.09286C2.87449 3.42085 3.42085 2.87449 4.09286 2.53209C4.51592 2.31652 4.9732 2.22666 5.49381 2.18412C5.99943 2.14281 6.62383 2.14282 7.39796 2.14282ZM13.7806 6.63775C14.0596 6.3588 14.5118 6.3588 14.7908 6.63775L17.6479 9.49489C17.7819 9.62884 17.8571 9.81053 17.8571 9.99997C17.8571 10.1894 17.7819 10.3711 17.6479 10.505L14.7908 13.3622C14.5118 13.6411 14.0596 13.6411 13.7806 13.3622C13.5017 13.0832 13.5017 12.631 13.7806 12.352L15.4184 10.7143H8.5714C8.17691 10.7143 7.85711 10.3945 7.85711 9.99997C7.85711 9.60548 8.17691 9.28568 8.5714 9.28568H15.4184L13.7806 7.6479C13.5017 7.36895 13.5017 6.91669 13.7806 6.63775Z" fill="#222939"/>
</svg>
