<svg width="22" height="22" viewBox="0 0 22 22" fill="none" xmlns="http://www.w3.org/2000/svg">
<path d="M10.7599 20.5999C5.45798 20.5999 1.15991 16.3018 1.15991 10.9999C1.15991 5.69797 5.45798 1.3999 10.7599 1.3999C14.7888 1.3999 18.238 3.88171 19.6621 7.3999M2.35991 14.5999H5.15991C6.26448 14.5999 7.15991 13.7045 7.15991 12.5999V9.9999C7.15991 8.89533 8.05534 7.9999 9.15991 7.9999H11.1599C12.2645 7.9999 13.1599 7.10447 13.1599 5.9999V2.5999M16.9999 14.8399V14.7677M20.8399 14.7564C20.8399 17.2608 16.9999 20.5999 16.9999 20.5999C16.9999 20.5999 13.1599 17.2608 13.1599 14.7564C13.1599 12.6818 14.8791 10.9999 16.9999 10.9999C19.1207 10.9999 20.8399 12.6818 20.8399 14.7564Z" stroke="black" stroke-width="2" stroke-linecap="round" stroke-linejoin="round"/>
</svg>
