<svg width="52" height="52" viewBox="0 0 52 52" fill="none" xmlns="http://www.w3.org/2000/svg">
<g id="black-moon-or-night-16570 2">
<g id="Group">
<path id="Vector" d="M50.6137 34.1119C50.3819 33.9715 50.0805 34.0126 49.8956 34.2146C47.1256 37.2438 43.5428 39.2318 39.5359 39.9647C34.6483 40.8574 29.7019 39.7957 25.6117 36.9704C21.5221 34.1456 18.7772 29.8967 17.8833 25.0074C16.9889 20.1181 18.0523 15.1728 20.8777 11.0832C23.703 6.99352 27.9514 4.24863 32.8407 3.35421C33.7094 3.19554 34.6204 3.10764 35.7071 3.07796C35.9794 3.07054 36.2083 2.8719 36.2539 2.60364C36.3002 2.33537 36.1495 2.07167 35.8955 1.97406C31.517 0.298251 26.7521 -0.138396 22.1185 0.708643C8.18919 3.25661 -1.07059 16.6614 1.47681 30.5908C2.71083 37.3385 6.49854 43.2016 12.1424 47.1006C16.4826 50.0989 21.5198 51.6589 26.6836 51.6589C28.2356 51.6589 29.7995 51.5179 31.3578 51.2325C40.2597 49.6046 47.7289 43.3066 50.8528 34.7963C50.947 34.5406 50.8471 34.2535 50.6137 34.1119Z" fill="#00A8A5"/>
</g>
</g>
</svg>
