<svg width="10" height="10" viewBox="0 0 10 10" fill="none" xmlns="http://www.w3.org/2000/svg">
<path d="M9.73348 6.56005C9.68891 6.53304 9.63096 6.54095 9.59539 6.5798C9.0627 7.16233 8.3737 7.54464 7.60315 7.68558C6.66322 7.85726 5.712 7.65309 4.92541 7.10975C4.13894 6.56652 3.61108 5.74943 3.43919 4.80918C3.26719 3.86892 3.47168 2.91791 4.01502 2.13144C4.55836 1.34497 5.37534 0.81711 6.3156 0.645107C6.48266 0.614592 6.65785 0.597688 6.86684 0.59198C6.9192 0.590553 6.96321 0.552355 6.97199 0.500765C6.98089 0.449175 6.95191 0.398463 6.90306 0.379694C6.06105 0.0574217 5.14473 -0.0265489 4.25365 0.136343C1.57493 0.626337 -0.205798 3.20418 0.284086 5.8829C0.521399 7.18055 1.2498 8.30806 2.33517 9.05787C3.16982 9.63447 4.13851 9.93446 5.13155 9.93446C5.43001 9.93446 5.73077 9.90735 6.03043 9.85247C7.74233 9.53941 9.17872 8.32826 9.77947 6.69166C9.79758 6.64248 9.77837 6.58727 9.73348 6.56005Z" fill="#00A8A5"/>
</svg>
