<svg width="33" height="32" viewBox="0 0 33 32" fill="none" xmlns="http://www.w3.org/2000/svg">
<g id="Frame">
<g id="Layer2">
<path id="Pray" fill-rule="evenodd" clip-rule="evenodd" d="M6.885 10.908L5.439 12.354C5.158 12.635 5 13.016 5 13.414V20C5 20.104 5.032 20.201 5.087 20.282L6.857 22.936L5.276 24.516C4.554 24.624 4 25.247 4 25.999C4 26.827 4.672 27.5 5.5 27.5H28.5C28.5 27.5 29 27.456 29 26.985V26C29 25.172 28.328 24.5 27.5 24.5H16V23.618C16 23.05 15.679 22.53 15.171 22.276L11.796 20.589L11 19.793V16.809L11.704 17.161C12.227 17.423 12.855 17.356 13.312 16.991C14.578 15.978 17.812 13.39 17.812 13.39C17.978 13.258 18.042 13.035 17.972 12.834C17.902 12.634 17.712 12.5 17.5 12.5H17V12.39L17.864 12.174C18.532 12.008 19 11.408 19 10.719C19 9.995 19 9.028 19 9.028C19 8.855 18.911 8.695 18.764 8.603C18.617 8.512 18.434 8.503 18.279 8.579C18.279 8.579 15.936 9.734 14.837 10.277C14.324 10.529 14 11.051 14 11.622V12.5H13.5C13.367 12.5 13.24 12.553 13.146 12.646L12.406 13.387L10.873 12.587L10.05 10.963C10.629 10.507 11 9.801 11 9.006V5C11 4.724 10.776 4.5 10.5 4.5H7.5C6.672 4.5 6 5.172 6 6V6.992V9C6 9.764 6.344 10.449 6.885 10.908ZM27.5 25.5H5.499C5.223 25.5 5 25.723 5 25.999C5 26.275 5.224 26.5 5.5 26.5H28V26C28 25.724 27.776 25.5 27.5 25.5ZM15 24.5V23.618C15 23.429 14.893 23.256 14.724 23.171L11.276 21.447C11.228 21.423 11.184 21.392 11.146 21.354L10.293 20.5H6.434L7.768 22.5H10.5C10.776 22.5 11 22.724 11 23C11 23.276 10.776 23.5 10.5 23.5H7.707L6.707 24.5H15ZM7.805 11.402L6.146 13.061C6.053 13.154 6 13.282 6 13.414V19.5H10V16C10 15.827 10.09 15.666 10.237 15.575C10.385 15.484 10.569 15.475 10.724 15.553L12.151 16.267C12.326 16.354 12.535 16.332 12.687 16.21L16.075 13.5H13.707L12.854 14.354C12.699 14.508 12.462 14.544 12.269 14.443L10.269 13.399C10.176 13.351 10.101 13.275 10.054 13.182L9.157 11.413C8.948 11.47 8.727 11.5 8.5 11.5C8.259 11.5 8.026 11.466 7.805 11.402ZM16 12.5V12C16 11.771 16.156 11.571 16.379 11.515L17.621 11.204C17.844 11.149 18 10.949 18 10.719V9.832L15.279 11.173C15.108 11.258 15 11.432 15 11.622V12.5H16ZM10 7.5H7V9C7 9.828 7.672 10.5 8.5 10.5C9.327 10.5 10 9.833 10 9.006V7.5ZM7 6.5H10V5.5H7.5C7.224 5.5 7 5.724 7 6V6.5Z" fill="#00A8A5"/>
</g>
</g>
</svg>
