<svg width="168" height="142" viewBox="0 0 168 142" fill="none" xmlns="http://www.w3.org/2000/svg">
<path d="M85.0977 140.755C121.203 140.755 150.547 111.411 150.547 75.3053C150.547 39.2 121.203 9.85602 85.0977 9.85602C48.9924 9.99124 19.6484 39.2 19.6484 75.4405C19.6484 111.546 48.9924 140.755 85.0977 140.755Z" fill="#F1F1F1" stroke="#E1E1E1" stroke-width="2" stroke-miterlimit="10"/>
<path d="M128.099 64.7578V113.304C128.099 116.279 125.665 118.713 122.69 118.713H45.7469C42.772 118.713 40.3379 116.279 40.3379 113.304V64.7578C40.3379 61.7829 42.9072 59.3488 45.7469 59.3488H122.69C124.989 59.3488 126.882 60.7011 127.829 62.7295C127.964 63.2704 128.099 63.9465 128.099 64.7578Z" fill="#F1F1F1" stroke="#E1E1E1" stroke-width="2" stroke-miterlimit="10"/>
<path d="M166.098 59.0783C168.261 57.0499 168.396 53.6692 166.503 51.5056C164.475 49.342 161.094 49.2068 158.931 51.0999C156.767 53.1283 156.632 56.509 158.525 58.6726C160.553 60.9714 163.934 61.1066 166.098 59.0783Z" fill="#F1F1F1"/>
<path d="M166.503 35.4133C167.45 34.602 167.45 33.1145 166.638 32.3031C165.827 31.3566 164.339 31.3566 163.528 32.1679C162.717 32.9793 162.581 34.4667 163.393 35.2781C164.204 36.2247 165.556 36.2247 166.503 35.4133Z" fill="#F1F1F1"/>
<path d="M109.979 2.68902C110.655 2.14812 110.655 1.06631 110.114 0.525411C109.573 -0.150717 108.627 -0.150717 107.951 0.390186C107.275 0.931089 107.275 1.87767 107.815 2.5538C108.356 3.22993 109.303 3.22993 109.979 2.68902Z" fill="#F1F1F1"/>
<path d="M155.956 33.6558L136.754 67.7326C136.077 68.8145 134.59 69.2201 133.508 68.544L100.784 49.4772C99.7017 48.801 99.296 47.3136 99.9722 46.2318L125.259 2.82428C125.936 1.74247 127.423 1.3368 128.505 2.01292L152.305 15.9412L155.956 33.6558Z" fill="white" stroke="#E1E1E1" stroke-width="2" stroke-miterlimit="10"/>
<path d="M152.034 15.8058L146.625 25.0012C145.949 26.3535 146.355 27.9762 147.572 28.7875L155.82 33.5204" fill="#E1E1E1"/>
<path d="M129.587 24.7307C130.128 24.5955 130.669 24.5955 131.075 24.5955C131.615 24.5955 132.156 24.5955 132.697 24.5955C133.238 24.7307 133.914 24.866 134.455 25.0012C135.131 25.2716 135.672 25.5421 136.213 25.8126C137.025 26.2182 137.701 26.7591 138.377 27.4353C138.918 27.9762 139.323 28.6523 139.594 29.5989C139.864 30.275 139.864 31.0864 139.864 31.8977C139.729 32.7091 139.459 33.5204 139.053 34.3318C138.647 35.0079 138.242 35.5488 137.701 36.0897C137.16 36.4954 136.754 36.7658 136.078 37.0363C135.537 37.3067 134.996 37.442 134.455 37.442L132.968 37.5772C132.562 37.5772 132.156 37.7124 131.616 37.8476C131.21 37.9829 130.939 38.1181 130.669 38.3885L129.181 40.4169L126.612 39.0647L127.694 36.4954C127.829 36.0897 128.235 35.684 128.505 35.4136C128.911 35.1431 129.317 35.0079 129.722 34.8727C130.263 34.7374 130.669 34.7375 131.21 34.6022C131.751 34.6022 132.292 34.467 132.833 34.3318C133.373 34.1965 133.779 34.0613 134.32 33.7909C134.861 33.5204 135.131 33.1147 135.402 32.5738C135.537 32.3034 135.672 31.8977 135.807 31.492C135.807 31.0864 135.807 30.8159 135.672 30.5455C135.537 30.1398 135.402 29.8693 135.131 29.5989C134.861 29.3284 134.59 29.058 134.185 28.7875C133.779 28.5171 133.238 28.2466 132.697 28.1114C132.292 27.9762 131.886 27.9762 131.48 27.9762C131.075 27.9762 130.804 27.9762 130.534 27.9762C130.398 27.9762 130.128 27.9762 129.993 27.8409C129.722 27.7057 129.452 27.3 129.452 27.0296L129.587 24.7307ZM122.15 43.7976C122.285 43.5271 122.555 43.2567 122.826 42.9862C123.096 42.851 123.367 42.5805 123.637 42.5805C124.313 42.4453 124.989 42.4453 125.666 42.851C125.936 42.9862 126.206 43.2567 126.477 43.5271C126.612 43.7976 126.747 44.068 126.883 44.3385C127.288 45.6907 126.477 47.1782 125.125 47.5839C124.449 47.7191 123.772 47.5839 123.096 47.3134C122.826 47.1782 122.555 46.9078 122.285 46.6373C122.15 46.3669 121.879 46.0964 121.879 45.826C121.744 45.5555 121.744 45.1498 121.879 44.8794C121.879 44.3385 122.014 44.068 122.15 43.7976Z" fill="#E1E1E1"/>
<path d="M32.9004 18.916L54.9422 41.7692C55.6183 42.5805 55.6183 43.7976 54.8069 44.6089L32.3595 65.7041C31.5481 66.3803 30.3311 66.3803 29.5197 65.5689L1.66322 35.9545C0.987094 35.1431 0.987094 33.9261 1.79845 33.1147L18.0255 17.8342L32.9004 18.916Z" fill="white" stroke="#E1E1E1" stroke-width="2" stroke-miterlimit="10"/>
<path d="M18.0254 17.6989L24.1105 24.0545C24.9219 24.8658 26.4094 24.8658 27.356 24.0545L32.9002 18.7807" fill="#E1E1E1"/>
<path d="M19.6484 37.3069C19.6484 36.9012 19.7837 36.4955 19.9189 36.0898C20.0541 35.6842 20.1893 35.2785 20.3246 34.8728C20.4598 34.4671 20.7302 34.0615 21.0007 33.6558C21.2711 33.2501 21.6768 32.8444 22.0825 32.4388C22.6234 31.8978 23.1643 31.4922 23.8404 31.2217C24.3813 30.9513 25.0575 30.816 25.5984 30.816C26.1393 30.816 26.8154 30.9513 27.3563 31.0865C27.8972 31.3569 28.4381 31.7626 28.979 32.1683C29.3847 32.574 29.7904 33.1149 29.9256 33.6558C30.0608 34.0615 30.196 34.6024 30.3313 35.1433C30.3313 35.5489 30.3313 36.0898 30.3313 36.4955C30.196 36.9012 30.196 37.3069 30.0608 37.7126C30.0608 38.1182 29.9256 38.3887 29.9256 38.7944C29.9256 39.0648 29.9256 39.3353 30.196 39.6057L31.2779 41.2284L29.6551 42.7159L28.0324 41.2284C27.762 40.958 27.4915 40.6875 27.3563 40.2818C27.2211 39.8762 27.2211 39.6057 27.2211 39.2C27.2211 38.7944 27.3563 38.3887 27.3563 37.983C27.4915 37.5773 27.4915 37.1717 27.4915 36.766C27.4915 36.3603 27.4915 35.9546 27.3563 35.5489C27.2211 35.1433 26.9506 34.7376 26.6802 34.3319C26.545 34.0615 26.2745 33.9262 26.004 33.791C25.7336 33.6558 25.4631 33.6558 25.1927 33.6558C24.9222 33.6558 24.6518 33.791 24.3813 33.9262C24.1109 34.0615 23.8404 34.1967 23.57 34.4671C23.2995 34.7376 23.0291 35.1433 22.7586 35.4137C22.6234 35.6842 22.4882 35.9546 22.353 36.3603C22.2177 36.6307 22.2177 36.9012 22.2177 37.0364C22.2177 37.1717 22.0825 37.3069 21.9473 37.4421C21.812 37.7126 21.4064 37.7126 21.1359 37.5773L19.6484 37.3069ZM32.9006 47.4488C32.7653 47.3136 32.6301 47.0431 32.4949 46.7727C32.3597 46.5022 32.3597 46.2318 32.3597 45.9613C32.3597 45.4204 32.6301 44.8795 33.0358 44.4738C33.171 44.3386 33.4415 44.2034 33.7119 44.0682C33.9824 43.9329 34.2528 43.9329 34.5233 43.9329C35.3346 43.9329 36.146 44.4738 36.5517 45.2852C36.6869 45.5556 36.6869 45.8261 36.6869 46.0965C36.6869 46.367 36.5517 46.6375 36.5517 46.9079C36.4164 47.1784 36.2812 47.3136 36.0108 47.584C35.8755 47.7193 35.6051 47.9897 35.3346 47.9897C34.7937 48.1249 34.2528 48.1249 33.8471 47.9897C33.3062 47.8545 33.0358 47.7193 32.9006 47.4488Z" fill="#E1E1E1"/>
<path d="M89.9654 54.8864L81.4462 85.3122C81.1757 86.2588 80.0939 86.9349 79.0121 86.5292L49.3977 77.8748C48.4511 77.6043 47.775 76.5225 48.1807 75.4407L59.6748 36.3605C59.9453 35.4139 61.0271 34.7377 62.1089 35.1434L83.6098 41.3638L89.9654 54.8864Z" fill="white" stroke="#E1E1E1" stroke-width="2" stroke-miterlimit="10"/>
<path opacity="0.1" d="M128.099 64.7577V113.304C128.099 116.279 125.665 118.713 122.69 118.713H45.7469C42.772 118.713 40.3379 116.279 40.3379 113.304V75.8462H71.8455C74.9557 75.8462 78.0659 74.7644 80.3647 72.736L88.8839 65.7042C91.318 63.8111 94.293 62.5941 97.4032 62.5941H127.694C127.964 63.2702 128.099 63.9463 128.099 64.7577Z" fill="#919191"/>
<path d="M83.6099 41.4987L81.0406 50.0179C80.7701 51.0997 81.4463 52.452 82.5281 52.8577L89.9655 55.1565" fill="#E1E1E1"/>
<path d="M67.5181 52.8575C67.9237 52.7223 68.3294 52.5871 68.7351 52.4518C69.1408 52.3166 69.5465 52.1814 70.0874 52.1814C70.6283 52.1814 71.0339 52.1814 71.5748 52.1814C72.1157 52.1814 72.6567 52.3166 73.1976 52.4518C73.8737 52.5871 74.5498 52.9928 75.2259 53.3984C75.7668 53.8041 76.1725 54.2098 76.5782 54.7507C76.8487 55.2916 77.1191 55.8325 77.2543 56.3734C77.3896 57.0495 77.2543 57.7257 77.1191 58.4018C76.9839 58.9427 76.7134 59.4836 76.3077 60.0245C76.0373 60.4302 75.6316 60.8358 75.2259 61.1063C74.8203 61.3768 74.4146 61.6472 74.0089 61.7824L72.7919 62.4586C72.5214 62.5938 72.1157 62.729 71.8453 62.8642C71.5748 62.9995 71.3044 63.2699 71.3044 63.5404L70.493 65.2983L68.1942 64.6222L68.5999 62.3233C68.5999 61.9177 68.8703 61.6472 69.1408 61.3768C69.4112 61.1063 69.6817 60.8358 70.0874 60.7006C70.493 60.5654 70.8987 60.4302 71.1692 60.2949C71.5748 60.1597 71.9805 60.0245 72.3862 59.754C72.7919 59.6188 73.0623 59.3484 73.468 59.0779C73.7385 58.8075 74.0089 58.4018 74.1441 57.8609C74.2794 57.5904 74.2794 57.32 74.2794 57.0495C74.2794 56.7791 74.1441 56.5086 74.0089 56.2382C73.8737 55.9677 73.6032 55.8325 73.3328 55.562C73.0623 55.4268 72.7919 55.2916 72.3862 55.1564C71.9805 55.0211 71.5748 55.0211 71.0339 55.0211C70.7635 55.0211 70.3578 55.0211 70.0874 55.1564C69.8169 55.1564 69.5465 55.2916 69.4112 55.2916C69.276 55.2916 69.1408 55.4268 68.8703 55.2916C68.5999 55.2916 68.3294 55.0211 68.3294 54.7507L67.5181 52.8575ZM65.3545 69.4903C65.4897 69.2198 65.4897 68.9494 65.7601 68.8142C65.8954 68.5437 66.1658 68.4085 66.301 68.2733C66.8419 68.0028 67.3828 68.0028 67.7885 68.138C68.059 68.2733 68.3294 68.4085 68.4647 68.5437C68.5999 68.6789 68.8703 68.9494 69.0056 69.0846C69.5465 70.0312 69.1408 71.3835 68.1942 71.9244C67.6533 72.1948 67.1124 72.1948 66.7067 72.0596C66.4363 71.9244 66.1658 71.9244 66.0306 71.6539C65.7601 71.5187 65.6249 71.2482 65.4897 71.113C65.3545 70.8426 65.3545 70.7073 65.2192 70.4369C65.2192 70.0312 65.2192 69.7607 65.3545 69.4903Z" fill="#E1E1E1"/>
<path d="M159.336 106.813L131.48 121.958C130.533 122.499 129.316 122.093 128.911 121.147L114.847 93.9665C114.441 93.0199 114.712 91.8029 115.658 91.3972L151.899 72.1952C152.846 71.6542 154.063 72.0599 154.468 73.0065L164.61 92.7495L159.336 106.813Z" fill="white" stroke="#E1E1E1" stroke-width="2" stroke-miterlimit="10"/>
<path d="M164.611 92.8845L156.767 96.9413C155.821 97.4822 155.28 98.9697 155.821 100.051L159.337 106.948" fill="#E1E1E1"/>
<path d="M145.273 89.2332C145.679 89.3684 146.084 89.6388 146.49 89.7741C146.896 89.9093 147.301 90.1797 147.707 90.5854C148.113 90.9911 148.383 91.2615 148.789 91.6672C149.194 92.0729 149.465 92.6138 149.735 93.0195C150.141 93.5604 150.276 94.3717 150.412 95.0479C150.547 95.724 150.412 96.4001 150.412 97.0763C150.141 97.6172 150.006 98.2933 149.735 98.699C149.33 99.2399 148.654 99.6455 148.248 99.916C147.707 100.186 147.166 100.457 146.49 100.457C145.949 100.592 145.408 100.592 144.867 100.457C144.326 100.322 143.921 100.186 143.515 100.051L142.298 99.5103C142.028 99.3751 141.622 99.2399 141.351 99.1046C141.081 98.9694 140.675 98.9694 140.405 99.2399L138.512 99.916L137.43 97.8876L139.323 96.6706C139.593 96.4001 139.999 96.4001 140.405 96.4001C140.81 96.4001 141.216 96.4001 141.622 96.6706C142.028 96.8058 142.433 97.0763 142.704 97.2115C143.109 97.3467 143.515 97.6172 143.921 97.7524C144.326 97.8876 144.732 98.0228 145.138 98.0228C145.543 98.0228 146.084 97.8876 146.49 97.6171C147.031 97.3467 147.437 96.8058 147.572 96.2649C147.707 95.9944 147.572 95.724 147.572 95.3183C147.437 95.0479 147.437 94.7774 147.166 94.3717C147.031 93.9661 146.625 93.6956 146.355 93.1547C146.22 93.0195 145.814 92.6138 145.543 92.6138C145.408 92.4786 145.002 92.3433 145.002 92.2081C144.867 92.0729 144.732 92.0729 144.597 91.8024C144.462 91.6672 144.462 91.2615 144.597 90.9911L145.273 89.2332ZM131.886 99.2399C132.156 99.1046 132.426 98.9694 132.697 99.1046C132.967 98.9694 133.238 99.1046 133.508 99.1046C134.049 99.3751 134.455 99.6455 134.725 100.051C134.861 100.322 134.861 100.592 134.861 100.863C134.861 100.998 134.861 101.403 134.861 101.674C134.725 102.215 134.184 102.621 133.779 102.891C133.508 103.026 133.238 103.026 132.967 103.026C132.832 103.026 132.426 103.026 132.156 103.026C131.615 102.756 131.209 102.485 130.939 102.08C130.939 101.674 130.939 101.403 130.939 101.133C130.804 100.863 130.939 100.592 130.939 100.322C131.074 100.051 131.209 99.7808 131.209 99.6455C131.48 99.5103 131.75 99.3751 131.886 99.2399Z" fill="#E1E1E1"/>
<path d="M129.587 90.4502V114.385C129.587 117.495 127.017 119.929 124.042 119.929H44.9354C41.8252 119.929 39.3911 117.36 39.3911 114.385V88.557" stroke="#1F1F1F" stroke-width="3" stroke-linecap="round" stroke-linejoin="round"/>
<path d="M126.476 75.1698H99.4313C96.862 75.1698 94.2927 76.1164 92.2643 77.7391L85.0974 83.5538C83.069 85.1765 80.4997 86.1231 77.9304 86.1231H47.0989C43.9887 86.1231 41.4194 88.5572 41.4194 91.6673C41.4194 91.9378 41.4194 92.2083 41.5547 92.4787L47.0989 122.093C47.5046 124.933 49.9387 126.961 52.7784 126.961H118.498C121.338 126.961 123.637 124.933 124.178 122.228L132.021 81.6606C132.426 78.6857 130.533 75.7107 127.288 75.305C127.017 75.1698 126.747 75.1698 126.476 75.1698Z" fill="white"/>
<path d="M134.05 69.7608H101.595C98.4853 69.7608 95.3751 70.8426 93.0762 72.871L84.557 79.7675C82.1229 81.7959 79.148 82.8777 76.0378 82.8777H39.1212C35.4701 82.8777 32.3599 85.8527 32.3599 89.639C32.3599 89.9094 32.3599 90.3151 32.4951 90.5856L39.2564 126.42C39.7973 129.801 42.637 132.37 46.0177 132.37H124.449C127.829 132.37 130.669 129.936 131.21 126.691L140.54 77.6039C141.081 73.9528 138.783 70.4369 134.996 69.896C134.726 69.7608 134.32 69.7608 134.05 69.7608Z" fill="white" stroke="#E1E1E1" stroke-width="2" stroke-miterlimit="10"/>
<path d="M98.7556 106.813C100.649 106.813 102.271 105.19 102.271 103.297C102.271 101.404 100.649 99.7811 98.7556 99.7811C96.8625 99.7811 95.2397 101.404 95.2397 103.297C95.2397 105.325 96.7272 106.813 98.7556 106.813Z" fill="#919191"/>
<path d="M77.172 111L78.93 111C80.4175 114.246 84.339 115.463 87.4492 113.84C88.6662 113.299 89.748 112.217 90.2889 111L92.0469 111C90.5594 115.192 85.6913 117.356 81.6345 115.733C79.7413 114.922 77.9834 113.299 77.172 111Z" fill="#919191"/>
<path d="M71.7102 106.813C73.6034 106.813 75.2261 105.19 75.2261 103.297C75.2261 101.404 73.6034 99.7811 71.7102 99.7811C69.817 99.7811 68.1943 101.404 68.1943 103.297C68.3296 105.325 69.817 106.813 71.7102 106.813Z" fill="#919191"/>
</svg>
