<svg width="25" height="26" viewBox="0 0 25 26" fill="none" xmlns="http://www.w3.org/2000/svg">
<g id="phone-6006 1" clip-path="url(#clip0_240_2208)">
<g id="Group">
<path id="Vector" d="M19.1972 24.8796L21.6499 23.6423C22.8164 23.0537 22.9564 21.4437 21.9089 20.6627L18.2062 17.9027C17.6478 17.4864 16.8965 17.4389 16.29 17.7816L15.2146 18.3895C14.6987 18.6812 14.067 18.7004 13.544 18.4218C10.7186 16.9178 8.55401 14.7532 7.04994 11.9278C6.77141 11.4048 6.79062 10.7731 7.08232 10.2572L7.69015 9.18177C8.0329 8.57559 7.98542 7.82397 7.56914 7.26554L4.80908 3.56287C4.0281 2.51516 2.41783 2.65511 1.82949 3.82192L0.592158 6.27463C0.0139671 7.42086 -0.0181393 8.77207 0.524652 9.93559C3.70785 16.7603 8.71152 21.7639 15.5362 24.9471C16.6994 25.4899 18.0509 25.4578 19.1972 24.8796Z" fill="#00827F"/>
<path id="Vector_2" d="M23.7127 15.2165C23.0933 15.2165 22.5912 14.7146 22.5912 14.095C22.5912 7.91107 17.5603 2.88024 11.3764 2.88024C10.7571 2.88024 10.2549 2.37833 10.2549 1.75871C10.2549 1.13908 10.7571 0.637451 11.3767 0.637451C18.7971 0.637451 24.8342 6.67456 24.8342 14.095C24.8342 14.7146 24.3323 15.2165 23.7127 15.2165Z" fill="#00827F"/>
<path id="Vector_3" d="M19.2269 15.2165C18.6075 15.2165 18.1053 14.7146 18.1053 14.095C18.1053 10.3847 15.087 7.36611 11.3764 7.36611C10.7571 7.36611 10.2549 6.8642 10.2549 6.24458C10.2549 5.62495 10.7568 5.12305 11.3764 5.12305C16.3236 5.12305 20.3481 9.14788 20.3481 14.0947C20.3484 14.7146 19.8462 15.2165 19.2269 15.2165Z" fill="#00827F"/>
</g>
</g>
<defs>
<clipPath id="clip0_240_2208">
<rect width="25" height="25" fill="white" transform="translate(0 0.5)"/>
</clipPath>
</defs>
</svg>
