<svg width="18" height="18" viewBox="0 0 18 18" fill="none" xmlns="http://www.w3.org/2000/svg">
<path d="M9.00014 0.428711C9.47353 0.428711 9.85728 0.812467 9.85728 1.28585V8.143H16.7144C17.1878 8.143 17.5716 8.52675 17.5716 9.00014C17.5716 9.47353 17.1878 9.85728 16.7144 9.85728H9.85728V16.7144C9.85728 17.1878 9.47353 17.5716 9.00014 17.5716C8.52675 17.5716 8.143 17.1878 8.143 16.7144V9.85728H1.28585C0.812467 9.85728 0.428711 9.47353 0.428711 9.00014C0.428711 8.52675 0.812467 8.143 1.28585 8.143H8.143V1.28585C8.143 0.812467 8.52675 0.428711 9.00014 0.428711Z" fill="#222939"/>
</svg>
