<svg width="25" height="24" viewBox="0 0 25 24" fill="none" xmlns="http://www.w3.org/2000/svg">
<g id="discover-compass">
<g id="icon">
<path fill-rule="evenodd" clip-rule="evenodd" d="M17.482 8.99791C18.0399 7.7427 16.7573 6.46011 15.5021 7.01799L10.5018 9.24033C10.1625 9.39115 9.89115 9.66249 9.74033 10.0018L7.51798 15.0021C6.96011 16.2573 8.24269 17.5399 9.49791 16.982L14.4982 14.7597C14.8375 14.6089 15.1089 14.3375 15.2597 13.9982L17.482 8.99791ZM11.4898 10.9898L15.1264 9.37359L13.5102 13.0102L9.87359 14.6264L11.4898 10.9898Z" fill="#00A8A5"/>
<path fill-rule="evenodd" clip-rule="evenodd" d="M12.5 23C18.5751 23 23.5 18.0751 23.5 12C23.5 5.92487 18.5751 1 12.5 1C6.42487 1 1.5 5.92487 1.5 12C1.5 18.0751 6.42487 23 12.5 23ZM12.5 20.9869C7.53665 20.9869 3.51306 16.9633 3.51306 12C3.51306 7.03665 7.53665 3.01306 12.5 3.01306C17.4633 3.01306 21.4869 7.03665 21.4869 12C21.4869 16.9633 17.4633 20.9869 12.5 20.9869Z" fill="#00A8A5"/>
</g>
</g>
</svg>
