<svg width="23" height="22" viewBox="0 0 23 22" fill="none" xmlns="http://www.w3.org/2000/svg">
<path fill-rule="evenodd" clip-rule="evenodd" d="M16.482 7.99791C17.0399 6.7427 15.7573 5.46011 14.5021 6.01799L9.50183 8.24033C9.16249 8.39115 8.89115 8.66249 8.74033 9.00184L6.51798 14.0021C5.96011 15.2573 7.24269 16.5399 8.49791 15.982L13.4982 13.7597C13.8375 13.6089 14.1089 13.3375 14.2597 12.9982L16.482 7.99791ZM10.4898 9.98985L14.1264 8.37359L12.5102 12.0102L8.87359 13.6264L10.4898 9.98985Z" fill="#0F0F0F"/>
<path fill-rule="evenodd" clip-rule="evenodd" d="M11.5 22C17.5751 22 22.5 17.0751 22.5 11C22.5 4.92487 17.5751 0 11.5 0C5.42487 0 0.5 4.92487 0.5 11C0.5 17.0751 5.42487 22 11.5 22ZM11.5 19.9869C6.53665 19.9869 2.51306 15.9633 2.51306 11C2.51306 6.03665 6.53665 2.01306 11.5 2.01306C16.4633 2.01306 20.4869 6.03665 20.4869 11C20.4869 15.9633 16.4633 19.9869 11.5 19.9869Z" fill="#0F0F0F"/>
</svg>
