<svg width="10" height="17" viewBox="0 0 10 17" fill="none" xmlns="http://www.w3.org/2000/svg">
<path d="M0.548256 2.10433C0.397867 1.95169 0.396871 1.70318 0.546032 1.54928C0.546771 1.54851 0.547511 1.54776 0.548256 1.547L1.36133 0.714928C1.50048 0.563192 1.73349 0.55563 1.88176 0.698037C1.88743 0.703487 1.89294 0.70912 1.89827 0.714928L8.94746 7.92885C9.05538 8.03915 9.11608 8.18879 9.11621 8.34488L9.11621 8.54897L9.11621 8.54895C9.11608 8.70504 9.05539 8.85469 8.94747 8.965L1.89828 16.1789C1.75912 16.3306 1.52612 16.3382 1.37785 16.1958C1.37217 16.1904 1.36667 16.1847 1.36134 16.1789L0.548269 15.3468C0.39788 15.1942 0.396885 14.9457 0.546046 14.7918C0.546784 14.791 0.547525 14.7903 0.548269 14.7895L6.74602 8.44693L0.548256 2.10433Z" fill="#222939"/>
</svg>
