<svg width="150" height="150" viewBox="0 0 150 150" fill="none" xmlns="http://www.w3.org/2000/svg">
<g id="Frame 627365 1" clip-path="url(#clip0_249_2969)">
<path id="Vector" d="M120 0H30C13.4315 0 0 13.4315 0 30V120C0 136.569 13.4315 150 30 150H120C136.569 150 150 136.569 150 120V30C150 13.4315 136.569 0 120 0Z" fill="white"/>
<g id="Group" filter="url(#filter0_d_249_2969)">
<g id="Vector_2" filter="url(#filter1_i_249_2969)">
<path d="M119.7 73.0883C119.24 73.0027 118.778 73.2526 118.603 73.6915C115.969 80.2691 111.391 85.6607 105.364 89.2841C98.0119 93.7018 89.3771 94.9999 81.0532 92.9288C72.7307 90.8584 65.7146 85.6696 61.2994 78.3197C56.8831 70.9702 55.595 62.338 57.6731 54.0144C59.7512 45.6907 64.945 38.6718 72.2987 34.2502C73.6055 33.4651 75.0235 32.7684 76.7609 32.0587C77.1961 31.881 77.4451 31.4208 77.3558 30.9598C77.2675 30.4986 76.8638 30.1645 76.3942 30.1617C68.3035 30.1222 60.3416 32.3188 53.3722 36.5082C32.4215 49.1046 25.6118 76.3867 38.1923 97.3256C44.2867 107.469 53.9681 114.629 65.4541 117.487C74.2868 119.685 83.371 119.137 91.7119 115.992C94.2187 115.047 96.659 113.867 99.0025 112.457C112.392 104.408 120.629 89.6908 120.502 74.0477C120.499 73.5775 120.163 73.1747 119.7 73.0883Z" fill="url(#paint0_linear_249_2969)"/>
</g>
</g>
</g>
<defs>
<filter id="filter0_d_249_2969" x="6.87842" y="20.1611" width="138.625" height="138.655" filterUnits="userSpaceOnUse" color-interpolation-filters="sRGB">
<feFlood flood-opacity="0" result="BackgroundImageFix"/>
<feColorMatrix in="SourceAlpha" type="matrix" values="0 0 0 0 0 0 0 0 0 0 0 0 0 0 0 0 0 0 127 0" result="hardAlpha"/>
<feOffset dy="15"/>
<feGaussianBlur stdDeviation="12.5"/>
<feComposite in2="hardAlpha" operator="out"/>
<feColorMatrix type="matrix" values="0 0 0 0 0 0 0 0 0 0 0 0 0 0 0 0 0 0 0.25 0"/>
<feBlend mode="normal" in2="BackgroundImageFix" result="effect1_dropShadow_249_2969"/>
<feBlend mode="normal" in="SourceGraphic" in2="effect1_dropShadow_249_2969" result="shape"/>
</filter>
<filter id="filter1_i_249_2969" x="31.8784" y="30.1611" width="88.625" height="92.6553" filterUnits="userSpaceOnUse" color-interpolation-filters="sRGB">
<feFlood flood-opacity="0" result="BackgroundImageFix"/>
<feBlend mode="normal" in="SourceGraphic" in2="BackgroundImageFix" result="shape"/>
<feColorMatrix in="SourceAlpha" type="matrix" values="0 0 0 0 0 0 0 0 0 0 0 0 0 0 0 0 0 0 127 0" result="hardAlpha"/>
<feOffset dy="4"/>
<feGaussianBlur stdDeviation="2"/>
<feComposite in2="hardAlpha" operator="arithmetic" k2="-1" k3="1"/>
<feColorMatrix type="matrix" values="0 0 0 0 0 0 0 0 0 0 0 0 0 0 0 0 0 0 0.25 0"/>
<feBlend mode="normal" in2="shape" result="effect1_innerShadow_249_2969"/>
</filter>
<linearGradient id="paint0_linear_249_2969" x1="139.53" y1="8.82627" x2="8.23477" y2="138.837" gradientUnits="userSpaceOnUse">
<stop offset="0.338542" stop-color="#21D8DF"/>
<stop offset="1" stop-color="#00827F"/>
</linearGradient>
<clipPath id="clip0_249_2969">
<rect width="150" height="150" fill="white"/>
</clipPath>
</defs>
</svg>
