<svg width="24" height="24" viewBox="0 0 24 24" fill="none" xmlns="http://www.w3.org/2000/svg">
<g id="icon_line/Send">
<g id="Group 33514">
<path id="Vector (Stroke)" fill-rule="evenodd" clip-rule="evenodd" d="M21.3463 5.37962C21.7989 3.79548 20.3343 2.33089 18.7502 2.7835L4.75151 6.78313C2.41811 7.44981 1.9798 10.5668 4.03885 11.8511L8.52361 14.6485C8.91166 14.8906 9.23923 15.2182 9.48128 15.6062L12.2787 20.091C13.5631 22.15 16.68 21.7117 17.3467 19.3783L21.3463 5.37962ZM19.4257 4.77755C19.4286 4.78775 19.431 4.80323 19.4233 4.83017L15.4236 18.8289C15.2332 19.4955 14.3426 19.6208 13.9756 19.0325L11.1782 14.5477C10.7748 13.901 10.2288 13.355 9.58209 12.9516L5.09734 10.1542C4.50904 9.78721 4.63427 8.89666 5.30096 8.70617L19.2996 4.70655C19.3266 4.69885 19.3421 4.70122 19.3523 4.70407C19.3657 4.7078 19.3823 4.7165 19.3978 4.73199C19.4133 4.74749 19.422 4.76415 19.4257 4.77755Z" fill="white"/>
<path id="Vector 15 (Stroke)" fill-rule="evenodd" clip-rule="evenodd" d="M14.565 9.56498C14.1745 9.17445 13.5413 9.17445 13.1508 9.56498L9.61527 13.1005C9.22475 13.491 9.22475 14.1242 9.61527 14.5147C10.0058 14.9052 10.639 14.9052 11.0295 14.5147L14.565 10.9792C14.9555 10.5887 14.9555 9.9555 14.565 9.56498Z" fill="white"/>
</g>
</g>
</svg>
