<svg width="35" height="35" viewBox="0 0 35 35" fill="none" xmlns="http://www.w3.org/2000/svg">
<g id="Telegram_2019_Logo 1" clip-path="url(#clip0_210_1662)">
<g id="Artboard">
<path id="Oval" d="M17.5073 35.0146C27.1763 35.0146 35.0146 27.1763 35.0146 17.5073C35.0146 7.83828 27.1763 0 17.5073 0C7.83828 0 0 7.83828 0 17.5073C0 27.1763 7.83828 35.0146 17.5073 35.0146Z" fill="#00827F"/>
<path id="Path-3" fill-rule="evenodd" clip-rule="evenodd" d="M7.91545 17.3179C13.0175 15.1022 16.414 13.6299 18.1195 12.9156C22.9738 10.8893 23.9942 10.5395 24.6501 10.5249C24.7959 10.5249 25.1166 10.5541 25.3353 10.729C25.5102 10.8748 25.5539 11.0643 25.5831 11.21C25.6122 11.3558 25.6414 11.6619 25.6122 11.8952C25.3499 14.6648 24.2128 21.385 23.6297 24.4753C23.3819 25.7873 22.9009 26.2246 22.4344 26.2683C21.414 26.3558 20.6414 25.5978 19.6647 24.9564C18.1195 23.9506 17.2595 23.3237 15.758 22.3325C14.0233 21.1955 15.1458 20.5686 16.137 19.5482C16.3994 19.2858 20.8746 15.2042 20.9621 14.8398C20.9767 14.796 20.9767 14.6211 20.8746 14.5336C20.7726 14.4462 20.6268 14.4753 20.5102 14.5045C20.3499 14.5336 17.9009 16.1663 13.1341 19.3879C12.4344 19.8689 11.8076 20.1022 11.2391 20.0876C10.6122 20.073 9.41691 19.7377 8.51312 19.4462C7.41983 19.0963 6.54519 18.9068 6.61808 18.2946C6.66181 17.9739 7.09913 17.6532 7.91545 17.3179Z" fill="white"/>
</g>
</g>
<defs>
<clipPath id="clip0_210_1662">
<rect width="35" height="35" fill="white"/>
</clipPath>
</defs>
</svg>
