<svg width="22" height="20" viewBox="0 0 22 20" fill="none" xmlns="http://www.w3.org/2000/svg">
<path d="M15.0253 18.5708L15.0256 15.3571C15.0258 13.5819 13.5867 12.1427 11.8115 12.1427H4.61432C2.83939 12.1427 1.40046 13.5815 1.40026 15.3564L1.3999 18.5708M20.5996 18.571L20.5999 15.3572C20.6001 13.5821 19.161 12.1429 17.3858 12.1429M14.4062 2.06061C15.1955 2.64624 15.7071 3.5851 15.7071 4.64343C15.7071 5.70176 15.1955 6.64061 14.4062 7.22625M11.4937 4.64325C11.4937 6.41833 10.0547 7.85731 8.27964 7.85731C6.50457 7.85731 5.06559 6.41833 5.06559 4.64325C5.06559 2.86818 6.50457 1.4292 8.27964 1.4292C10.0547 1.4292 11.4937 2.86818 11.4937 4.64325Z" stroke="black" stroke-width="2" stroke-linecap="round" stroke-linejoin="round"/>
</svg>
