<svg width="21" height="21" viewBox="0 0 21 21" fill="none" xmlns="http://www.w3.org/2000/svg">
<g clip-path="url(#clip0_15_8)">
<path d="M10.4888 0.609894C6.19981 0.609894 2.72288 4.08683 2.72288 8.37581C2.72288 10.2906 3.41901 12.0404 4.56782 13.3943L10.4888 20.3677L16.4096 13.3943C17.5584 12.0404 18.2545 10.2903 18.2545 8.37581C18.2547 4.08683 14.7778 0.609894 10.4888 0.609894ZM12.9449 11.1474L10.4888 9.85611L8.0329 11.1474L8.50204 8.41247L6.51506 6.47577L9.26096 6.07666L10.4888 3.58849L11.7169 6.07666L14.4628 6.47577L12.4758 8.41247L12.9449 11.1474Z" fill="#00827F"/>
<path d="M10.4888 1.04896C14.5288 1.04896 17.8157 4.33578 17.8157 8.37581C17.8157 10.1059 17.1975 11.7873 16.075 13.1102L10.4888 19.6894L4.90282 13.1102C3.78036 11.7873 3.16216 10.1059 3.16216 8.37559C3.16194 4.33578 6.44876 1.04896 10.4888 1.04896ZM8.9692 5.67558L6.45162 6.04132L5.5713 6.1693L6.20838 6.79036L8.03005 8.56615L7.59998 11.0734L7.4496 11.9502L8.23706 11.5362L10.4888 10.3523L12.7405 11.536L13.528 11.95L13.3776 11.0732L12.9475 8.56593L14.7692 6.79014L15.4063 6.16908L14.526 6.0411L12.0084 5.67536L10.8826 3.39421L10.4888 2.59643L10.0952 3.39421L8.9692 5.67558ZM10.4888 0.609894C6.19981 0.609894 2.72288 4.08683 2.72288 8.37581C2.72288 10.2906 3.41901 12.0404 4.56782 13.3943L10.4888 20.3677L16.4096 13.3943C17.5584 12.0404 18.2545 10.2903 18.2545 8.37581C18.2547 4.08683 14.7778 0.609894 10.4888 0.609894ZM8.0329 11.1474L8.50204 8.41247L6.51506 6.47577L9.26096 6.07666L10.4888 3.58849L11.7169 6.07666L14.4628 6.47577L12.4758 8.41247L12.9449 11.1474L10.4888 9.85611L8.0329 11.1474Z" fill="#00827F"/>
</g>
<defs>
<clipPath id="clip0_15_8">
<rect width="20" height="20" fill="white" transform="translate(0.5 0.5)"/>
</clipPath>
</defs>
</svg>
