<svg width="35" height="35" viewBox="0 0 35 35" fill="none" xmlns="http://www.w3.org/2000/svg">
<g id="whatsapp-logo-4457 1" clip-path="url(#clip0_204_13546)">
<g id="Group">
<path id="Vector" d="M17.5304 8.12866C12.4254 8.12866 8.27396 12.279 8.27203 17.3801C8.27127 19.1281 8.76033 20.8304 9.68697 22.3037L9.90749 22.6537L8.97201 26.0675L12.475 25.149L12.813 25.3495C14.2337 26.1924 15.8627 26.6384 17.5235 26.6392H17.5269C22.6281 26.6392 26.7795 22.4885 26.7818 17.3874C26.7826 14.9152 25.821 12.5909 24.0737 10.8421C22.3261 9.09334 20.0026 8.12981 17.5304 8.12866ZM22.9746 21.3571C22.7429 22.0068 21.6069 22.6334 21.0967 22.6795C20.5865 22.726 20.1082 22.9104 17.7582 21.9833C14.9306 20.8681 13.145 17.9694 13.0059 17.7839C12.8668 17.5979 11.8699 16.2752 11.8699 14.9064C11.8699 13.5375 12.5887 12.8644 12.8438 12.5863C13.0985 12.3078 13.4001 12.2382 13.5856 12.2382C13.7708 12.2382 13.9567 12.2378 14.1189 12.2448C14.3171 12.2528 14.5365 12.2621 14.7451 12.7254C14.9925 13.2755 15.533 14.6513 15.603 14.7903C15.6725 14.9294 15.719 15.0919 15.626 15.2779C15.5334 15.4634 15.4869 15.5794 15.3482 15.742C15.2092 15.9045 15.0559 16.1046 14.9306 16.2291C14.7912 16.3678 14.6463 16.5184 14.8085 16.7965C14.971 17.0751 15.5292 17.9859 16.3563 18.7232C17.4194 19.671 18.3153 19.9645 18.5938 20.1039C18.8719 20.243 19.0344 20.2199 19.1966 20.034C19.3591 19.8484 19.8919 19.2218 20.0771 18.9437C20.2627 18.6652 20.4482 18.7117 20.7033 18.8042C20.9584 18.8972 22.3261 19.5703 22.6042 19.7094C22.8824 19.8484 23.0679 19.918 23.1375 20.034C23.2063 20.1508 23.2063 20.7075 22.9746 21.3571Z" fill="#00827F"/>
<path id="Vector_2" d="M17.4804 0.192383C7.93239 0.192383 0.192322 7.93245 0.192322 17.4805C0.192322 27.0285 7.93239 34.7686 17.4804 34.7686C27.0284 34.7686 34.7685 27.0285 34.7685 17.4805C34.7685 7.93245 27.0284 0.192383 17.4804 0.192383ZM17.5273 28.5195H17.5227C15.659 28.5187 13.8284 28.0512 12.2018 27.1645L6.29886 28.7123L7.8786 22.9447C6.90433 21.2566 6.39183 19.3414 6.39221 17.3798C6.3949 11.2425 11.3896 6.24898 17.5273 6.24898C20.5058 6.25013 23.3011 7.40958 25.4037 9.51335C27.506 11.6171 28.6631 14.4139 28.662 17.3883C28.6593 23.5255 23.6638 28.5195 17.5273 28.5195Z" fill="#00827F"/>
</g>
</g>
<defs>
<clipPath id="clip0_204_13546">
<rect width="35" height="35" fill="white"/>
</clipPath>
</defs>
</svg>
