<svg width="15" height="20" viewBox="0 0 15 20" fill="none" xmlns="http://www.w3.org/2000/svg">
<path d="M12.647 7.851H11.8099V4.53454C11.8099 2.09094 9.82887 0.10989 7.38527 0.10989H6.59232C4.14872 0.10989 2.16767 2.09094 2.16767 4.53454V7.851H1.3306C0.543359 7.851 -0.0948181 8.48918 -0.0948181 9.27642V18.4421C-0.0948181 19.2293 0.543359 19.8675 1.3306 19.8675H12.6472C13.4345 19.8675 14.0726 19.2293 14.0726 18.4421V9.27642C14.0726 8.48918 13.4345 7.851 12.647 7.851ZM7.76769 13.8813V15.9833C7.76769 16.4134 7.41908 16.7622 6.9888 16.7622C6.55851 16.7622 6.2099 16.4136 6.2099 15.9833V13.8813C5.74274 13.5751 5.46613 13.0025 5.59872 12.3786C5.71266 11.8434 6.14602 11.4116 6.68145 11.2996C7.60173 11.1073 8.41202 11.8043 8.41202 12.6908C8.41202 13.1891 8.15539 13.6271 7.76769 13.8813ZM3.92238 7.851V5.14155C3.92238 3.33173 5.38951 1.8646 7.19933 1.8646C8.77666 1.8646 10.0552 3.14315 10.0552 4.72049V7.851H3.92238Z" fill="#00A8A5"/>
</svg>
