<svg width="20" height="20" viewBox="0 0 20 20" fill="none" xmlns="http://www.w3.org/2000/svg">
<path d="M15.647 7.851H14.8099V4.53454C14.8099 2.09094 12.8289 0.10989 10.3853 0.10989H9.59232C7.14872 0.10989 5.16767 2.09094 5.16767 4.53454V5.6862H6.92238V5.14177C6.92238 3.33195 8.38951 1.86482 10.1993 1.86482C11.7767 1.86482 13.0552 3.14337 13.0552 4.7207V7.85122H9.30122H4.33016C3.54292 7.85144 2.90496 8.48962 2.90496 9.27664V18.4423C2.90496 19.2295 3.54314 19.8679 4.3306 19.8679H15.6472C16.4345 19.8679 17.0728 19.2297 17.0728 18.4423V9.27642C17.0726 8.48918 16.4345 7.851 15.647 7.851ZM10.7677 13.8813V15.9833C10.7677 16.4134 10.4191 16.7622 9.9888 16.7622C9.55851 16.7622 9.2099 16.4134 9.2099 15.9833V13.8813C8.74274 13.5751 8.46613 13.0025 8.59872 12.3786C8.71266 11.8434 9.14602 11.4116 9.68145 11.2996C10.6017 11.1073 11.412 11.8043 11.412 12.6908C11.412 13.1891 11.1554 13.6271 10.7677 13.8813Z" fill="#00A8A5"/>
</svg>
